<svg width="18" height="17" viewBox="0 0 18 17" fill="none" xmlns="http://www.w3.org/2000/svg">
<path d="M17.55 14.2H14.4V2.40815C14.4 1.57631 13.7945 0.900024 13.05 0.900024H4.94972C4.20525 0.900024 3.59972 1.57631 3.59972 2.40815V14.2H0.45C0.201375 14.2 0 14.4126 0 14.675V15.625C0 15.8875 0.201375 16.1 0.45 16.1H17.55C17.7986 16.1 18 15.8875 18 15.625V14.675C18 14.4126 17.7986 14.2 17.55 14.2ZM11.6997 9.45002C11.2027 9.45002 10.7997 9.0246 10.7997 8.50002C10.7997 7.97545 11.2027 7.55002 11.6997 7.55002C12.1967 7.55002 12.5997 7.97545 12.5997 8.50002C12.6 9.0246 12.197 9.45002 11.6997 9.45002Z" fill="#DADADA"/>
</svg>
