<svg width="15" height="13" viewBox="0 0 15 13" fill="none" xmlns="http://www.w3.org/2000/svg">
<path d="M14.5312 10.2143H4.6875V9.75C4.6875 9.49464 4.47656 9.28571 4.21875 9.28571H3.28125C3.02344 9.28571 2.8125 9.49464 2.8125 9.75V10.2143H0.46875C0.210938 10.2143 0 10.4232 0 10.6786V11.6071C0 11.8625 0.210938 12.0714 0.46875 12.0714H2.8125V12.5357C2.8125 12.7911 3.02344 13 3.28125 13H4.21875C4.47656 13 4.6875 12.7911 4.6875 12.5357V12.0714H14.5312C14.7891 12.0714 15 11.8625 15 11.6071V10.6786C15 10.4232 14.7891 10.2143 14.5312 10.2143ZM14.5312 5.57143H12.1875V5.10714C12.1875 4.85179 11.9766 4.64286 11.7188 4.64286H10.7812C10.5234 4.64286 10.3125 4.85179 10.3125 5.10714V5.57143H0.46875C0.210938 5.57143 0 5.78036 0 6.03571V6.96429C0 7.21964 0.210938 7.42857 0.46875 7.42857H10.3125V7.89286C10.3125 8.14821 10.5234 8.35714 10.7812 8.35714H11.7188C11.9766 8.35714 12.1875 8.14821 12.1875 7.89286V7.42857H14.5312C14.7891 7.42857 15 7.21964 15 6.96429V6.03571C15 5.78036 14.7891 5.57143 14.5312 5.57143ZM14.5312 0.928571H8.4375V0.464286C8.4375 0.208929 8.22656 0 7.96875 0H7.03125C6.77344 0 6.5625 0.208929 6.5625 0.464286V0.928571H0.46875C0.210938 0.928571 0 1.1375 0 1.39286V2.32143C0 2.57679 0.210938 2.78571 0.46875 2.78571H6.5625V3.25C6.5625 3.50536 6.77344 3.71429 7.03125 3.71429H7.96875C8.22656 3.71429 8.4375 3.50536 8.4375 3.25V2.78571H14.5312C14.7891 2.78571 15 2.57679 15 2.32143V1.39286C15 1.1375 14.7891 0.928571 14.5312 0.928571Z" fill="#C4C4C4"/>
</svg>
