<svg width="19" height="15" viewBox="0 0 19 15" fill="none" xmlns="http://www.w3.org/2000/svg">
<path d="M9.2481 3.89139L3.16692 8.97622V14.4642C3.16692 14.6063 3.22252 14.7426 3.32149 14.8431C3.42046 14.9436 3.55469 15 3.69465 15L7.39079 14.9903C7.5303 14.9896 7.66386 14.9328 7.76225 14.8324C7.86065 14.732 7.91589 14.5961 7.91589 14.4545V11.2496C7.91589 11.1075 7.97149 10.9712 8.07046 10.8707C8.16943 10.7703 8.30366 10.7138 8.44363 10.7138H10.5546C10.6945 10.7138 10.8288 10.7703 10.9277 10.8707C11.0267 10.9712 11.0823 11.1075 11.0823 11.2496V14.4522C11.0821 14.5227 11.0956 14.5925 11.122 14.6577C11.1484 14.7229 11.1873 14.7822 11.2363 14.8321C11.2853 14.882 11.3436 14.9216 11.4077 14.9487C11.4718 14.9757 11.5406 14.9896 11.6101 14.9896L15.3049 15C15.4448 15 15.5791 14.9436 15.678 14.8431C15.777 14.7426 15.8326 14.6063 15.8326 14.4642V8.97254L9.75275 3.89139C9.68127 3.8329 9.59223 3.80101 9.50042 3.80101C9.40862 3.80101 9.31958 3.8329 9.2481 3.89139ZM18.8539 7.34747L16.0965 5.03996V0.401831C16.0965 0.295258 16.0548 0.193051 15.9805 0.117694C15.9063 0.0423357 15.8056 0 15.7007 0H13.8536C13.7486 0 13.6479 0.0423357 13.5737 0.117694C13.4995 0.193051 13.4578 0.295258 13.4578 0.401831V2.83324L10.5048 0.36667C10.2214 0.129918 9.86578 0.000473271 9.49877 0.000473271C9.13177 0.000473271 8.77616 0.129918 8.49277 0.36667L0.143643 7.34747C0.103564 7.3811 0.0704047 7.42242 0.0460602 7.46907C0.0217157 7.51571 0.00666293 7.56677 0.00176203 7.61933C-0.00313887 7.67188 0.00220814 7.7249 0.0174975 7.77536C0.0327869 7.82581 0.057719 7.87271 0.0908693 7.91338L0.93195 8.95145C0.96501 8.99226 1.00567 9.02605 1.05161 9.05088C1.09755 9.07572 1.14787 9.09111 1.19968 9.09618C1.25148 9.10125 1.30377 9.0959 1.35353 9.08043C1.4033 9.06496 1.44957 9.03968 1.4897 9.00603L9.2481 2.51847C9.31958 2.45998 9.40862 2.42808 9.50042 2.42808C9.59223 2.42808 9.68127 2.45998 9.75275 2.51847L17.5115 9.00603C17.5515 9.03968 17.5977 9.06499 17.6474 9.08052C17.6971 9.09604 17.7494 9.10147 17.8011 9.09649C17.8529 9.09152 17.9032 9.07623 17.9491 9.05152C17.9951 9.0268 18.0358 8.99314 18.0689 8.95245L18.91 7.91439C18.9431 7.87348 18.9679 7.82634 18.983 7.77566C18.9981 7.72499 19.0032 7.67178 18.998 7.6191C18.9928 7.56641 18.9774 7.5153 18.9527 7.46868C18.9279 7.42207 18.8944 7.38087 18.8539 7.34747Z" fill="#DADADA"/>
</svg>
