<svg width="19" height="15" viewBox="0 0 19 15" fill="none" xmlns="http://www.w3.org/2000/svg">
<path d="M2.85 6.42857C3.89797 6.42857 4.75 5.46763 4.75 4.28571C4.75 3.10379 3.89797 2.14286 2.85 2.14286C1.80203 2.14286 0.95 3.10379 0.95 4.28571C0.95 5.46763 1.80203 6.42857 2.85 6.42857ZM16.15 6.42857C17.198 6.42857 18.05 5.46763 18.05 4.28571C18.05 3.10379 17.198 2.14286 16.15 2.14286C15.102 2.14286 14.25 3.10379 14.25 4.28571C14.25 5.46763 15.102 6.42857 16.15 6.42857ZM17.1 7.5H15.2C14.6775 7.5 14.2055 7.73772 13.8611 8.12277C15.0575 8.86272 15.9066 10.1987 16.0906 11.7857H18.05C18.5755 11.7857 19 11.3069 19 10.7143V9.64286C19 8.46094 18.148 7.5 17.1 7.5ZM9.5 7.5C11.3377 7.5 12.825 5.82254 12.825 3.75C12.825 1.67746 11.3377 0 9.5 0C7.66234 0 6.175 1.67746 6.175 3.75C6.175 5.82254 7.66234 7.5 9.5 7.5ZM11.78 8.57143H11.5336C10.9161 8.90625 10.2303 9.10714 9.5 9.10714C8.76969 9.10714 8.08687 8.90625 7.46641 8.57143H7.22C5.33187 8.57143 3.8 10.2991 3.8 12.4286V13.3929C3.8 14.2801 4.43828 15 5.225 15H13.775C14.5617 15 15.2 14.2801 15.2 13.3929V12.4286C15.2 10.2991 13.6681 8.57143 11.78 8.57143ZM5.13891 8.12277C4.79453 7.73772 4.3225 7.5 3.8 7.5H1.9C0.852031 7.5 0 8.46094 0 9.64286V10.7143C0 11.3069 0.424531 11.7857 0.95 11.7857H2.90641C3.09344 10.1987 3.9425 8.86272 5.13891 8.12277Z" fill="#DADADA"/>
</svg>
